<?xml version="1.0" encoding="UTF-8" standalone="no"?>
<!DOCTYPE svg PUBLIC "-//W3C//DTD SVG 1.1//EN" "http://www.w3.org/Graphics/SVG/1.1/DTD/svg11.dtd">
<svg width="100%" height="100%" viewBox="0 0 64 64" version="1.1" xmlns="http://www.w3.org/2000/svg" xmlns:xlink="http://www.w3.org/1999/xlink" xml:space="preserve" xmlns:serif="http://www.serif.com/" style="fill-rule:evenodd;clip-rule:evenodd;stroke-linejoin:round;stroke-miterlimit:2;">
    <g transform="matrix(0.140815,0,0,0.140815,-18.699679,-85.974532)">
        <path d="M290.71,1028.978L209.195,980.229C209.195,980.229 194.825,972.01 194.825,960.477L194.825,940.752C194.825,940.752 194.405,934.562 200.289,926.538L222.35,886.072C222.35,886.072 224.79,879.338 237.118,873.241L290.71,851.557C290.71,851.557 319.386,846.217 325.905,800.326C325.905,800.326 327.832,787.995 339.334,798.197C339.334,798.197 352.625,811.614 375.759,816.294C375.759,816.294 323.473,782.06 323.473,762.938L323.473,741.809C323.473,741.809 299.67,729.641 299.67,708.111C299.67,686.581 317.054,686.982 317.054,686.982L317.054,659.037C317.054,659.037 313.887,610.6 401.904,610.6C401.904,610.6 450.745,607.398 458.842,651.276L465.11,686.013C465.11,686.013 419.553,674.965 390.347,685.77C390.347,685.77 453.366,682.479 494.111,704.627C494.111,704.627 509.949,713.537 491.12,714.136L466.347,714.136C466.347,714.136 459.075,712.889 459.075,728.668C459.075,728.668 461.777,794.019 416.227,819.092C416.227,819.092 398.997,824.138 404.988,833.018C404.988,833.018 408.481,844.026 446.509,856.772C446.509,856.772 490.44,869.439 501.213,891.313L525.199,936.444L525.199,959.621C525.199,959.621 527.09,969.546 511.158,979.209L439.333,1021.52L439.333,956.225C439.333,956.225 438.496,948.579 453.473,938.63C453.473,938.63 471.088,927.85 465.238,899.434C465.238,899.434 460.641,878.331 442.881,875.405L442.881,918.239L426.374,927.433L406.733,917.403L406.733,876.45C406.733,876.45 384.794,882.092 384.794,908.001C384.794,933.91 398.584,939.76 398.584,939.76C398.584,939.76 412.91,943.691 412.91,961.451L412.91,1035.627L360,1065.044L325.78,1046.701L325.78,965.608L320.912,960.593L320.912,927.329C320.912,927.329 323.085,917.968 339.299,917.968L339.299,922.816C339.299,922.816 338.798,929.669 352.839,929.669C366.88,929.669 367.381,921.311 367.381,921.311L367.381,886.042C367.381,886.042 367.883,878.185 354.009,878.185C340.135,878.185 338.97,885.325 338.97,885.325C338.97,885.325 334.006,897.649 323.908,885.325C323.908,885.325 320.792,875.83 295.307,875.83C269.821,875.83 257.953,883.185 257.953,883.185C257.953,883.185 233.458,891.209 232.417,918.789L237.118,918.789C237.118,918.789 245.576,901.719 269.814,901.719C294.051,901.719 295.307,923.658 295.307,923.658L295.307,960.85L290.71,966.25L290.71,1028.978Z" style="fill:rgb(34,34,34);"/>
        <path d="M194.825,918.196L194.825,803.658C194.825,779.838 214.455,770.018 214.455,770.018L295.307,723.841C302.819,740.139 314.501,745.324 314.501,745.324C314.501,745.324 321.81,765.923 316.378,801.897C310.945,837.872 290.71,842.558 290.71,842.558C290.71,842.558 254.781,856.139 237.118,863.661C219.455,871.183 217.171,876.616 217.171,876.616L194.825,918.196ZM466.52,747.064L517.294,776.734C517.294,776.734 525.269,782.167 525.269,807.24L525.269,919.652L507.891,884.967C507.891,884.967 500.996,869.923 476.55,860.521C452.103,851.118 422.851,839.626 422.851,839.626C422.851,839.626 402.583,828.761 419.508,827.299C436.432,825.836 458.58,779.5 458.58,779.5C458.58,779.5 464.64,767.242 466.52,747.064Z" style="fill:rgb(250,129,18);"/>
    </g>
</svg>
