<?xml version="1.0" encoding="UTF-8" standalone="no"?>
<!DOCTYPE svg PUBLIC "-//W3C//DTD SVG 1.1//EN" "http://www.w3.org/Graphics/SVG/1.1/DTD/svg11.dtd">
<svg width="100%" height="100%" viewBox="0 0 3618 976" version="1.1" xmlns="http://www.w3.org/2000/svg" xmlns:xlink="http://www.w3.org/1999/xlink" xml:space="preserve" xmlns:serif="http://www.serif.com/" style="fill-rule:evenodd;clip-rule:evenodd;stroke-linejoin:round;stroke-miterlimit:2;">
    <g transform="matrix(1,0,0,1,-2191.33286,-1762.016053)">
        <g transform="matrix(1,0,0,1,1163.684911,790.936988)">
            <g transform="matrix(300,0,0,300,1985.910878,1380.078637)">
                <path d="M0.066,-0L0.066,-0.728L0.295,-0.728L0.412,-0.394C0.417,-0.378 0.423,-0.358 0.429,-0.333C0.436,-0.308 0.442,-0.282 0.449,-0.253C0.455,-0.224 0.461,-0.196 0.467,-0.169C0.473,-0.143 0.477,-0.119 0.481,-0.099L0.452,-0.099C0.456,-0.119 0.461,-0.142 0.466,-0.169C0.472,-0.195 0.478,-0.223 0.484,-0.252C0.491,-0.281 0.497,-0.307 0.504,-0.333C0.51,-0.358 0.516,-0.378 0.521,-0.394L0.637,-0.728L0.866,-0.728L0.866,-0L0.716,-0L0.716,-0.343C0.716,-0.359 0.717,-0.379 0.717,-0.402C0.718,-0.426 0.718,-0.452 0.719,-0.479C0.72,-0.507 0.721,-0.534 0.721,-0.562C0.722,-0.59 0.722,-0.616 0.722,-0.641L0.732,-0.641C0.726,-0.614 0.719,-0.586 0.711,-0.557C0.704,-0.529 0.696,-0.501 0.689,-0.474C0.681,-0.447 0.674,-0.422 0.667,-0.399C0.66,-0.377 0.654,-0.358 0.649,-0.343L0.529,-0L0.403,-0L0.281,-0.343C0.276,-0.358 0.27,-0.376 0.263,-0.399C0.257,-0.421 0.249,-0.446 0.241,-0.473C0.234,-0.499 0.226,-0.527 0.218,-0.556C0.211,-0.585 0.203,-0.613 0.196,-0.641L0.208,-0.641C0.208,-0.618 0.209,-0.592 0.209,-0.564C0.21,-0.537 0.212,-0.428 0.213,-0.404C0.214,-0.38 0.214,-0.359 0.214,-0.343L0.214,-0L0.066,-0Z" style="fill:rgb(86,113,127);fill-rule:nonzero;"/>
            </g>
            <g transform="matrix(300,0,0,300,2265.403066,1380.078637)">
                <path d="M0.215,0.011C0.18,0.011 0.149,0.004 0.122,-0.008C0.094,-0.02 0.073,-0.038 0.057,-0.062C0.041,-0.087 0.033,-0.117 0.033,-0.153C0.033,-0.183 0.039,-0.209 0.05,-0.229C0.061,-0.249 0.076,-0.266 0.096,-0.278C0.115,-0.291 0.137,-0.3 0.162,-0.307C0.186,-0.313 0.212,-0.318 0.239,-0.32C0.271,-0.324 0.296,-0.327 0.315,-0.329C0.335,-0.332 0.349,-0.337 0.358,-0.343C0.367,-0.349 0.372,-0.357 0.372,-0.369L0.372,-0.372C0.372,-0.387 0.368,-0.4 0.362,-0.411C0.355,-0.422 0.345,-0.43 0.333,-0.436C0.32,-0.442 0.304,-0.444 0.286,-0.444C0.267,-0.444 0.251,-0.442 0.237,-0.436C0.223,-0.43 0.212,-0.423 0.203,-0.413C0.194,-0.404 0.187,-0.393 0.183,-0.381L0.049,-0.404C0.058,-0.435 0.074,-0.462 0.096,-0.484C0.117,-0.507 0.145,-0.524 0.177,-0.535C0.209,-0.547 0.246,-0.553 0.286,-0.553C0.316,-0.553 0.344,-0.549 0.372,-0.542C0.4,-0.535 0.424,-0.525 0.446,-0.51C0.468,-0.495 0.486,-0.476 0.499,-0.452C0.512,-0.429 0.518,-0.401 0.518,-0.368L0.518,-0L0.379,-0L0.379,-0.076L0.374,-0.076C0.366,-0.059 0.354,-0.044 0.339,-0.031C0.325,-0.018 0.307,-0.008 0.286,-0C0.266,0.007 0.242,0.011 0.215,0.011ZM0.256,-0.092C0.279,-0.092 0.3,-0.097 0.317,-0.106C0.334,-0.115 0.348,-0.127 0.358,-0.143C0.368,-0.159 0.373,-0.176 0.373,-0.195L0.373,-0.254C0.368,-0.251 0.362,-0.248 0.353,-0.246C0.344,-0.243 0.335,-0.241 0.324,-0.239C0.313,-0.237 0.303,-0.235 0.292,-0.233C0.282,-0.232 0.272,-0.23 0.264,-0.229C0.246,-0.227 0.23,-0.223 0.217,-0.217C0.203,-0.211 0.193,-0.203 0.185,-0.194C0.177,-0.184 0.174,-0.172 0.174,-0.157C0.174,-0.143 0.177,-0.131 0.184,-0.121C0.192,-0.112 0.201,-0.104 0.214,-0.099C0.226,-0.095 0.24,-0.092 0.256,-0.092Z" style="fill:rgb(86,113,127);fill-rule:nonzero;"/>
            </g>
            <g transform="matrix(300,0,0,300,2439.572987,1380.078637)">
                <rect x="0.062" y="-0.728" width="0.146" height="0.728" style="fill:rgb(86,113,127);"/>
            </g>
            <g transform="matrix(300,0,0,300,2520.871816,1380.078637)">
                <path d="M0.306,0.011C0.252,0.011 0.204,-0.001 0.164,-0.025C0.125,-0.048 0.094,-0.081 0.072,-0.123C0.051,-0.165 0.04,-0.215 0.04,-0.271C0.04,-0.327 0.051,-0.376 0.072,-0.419C0.094,-0.461 0.125,-0.494 0.164,-0.517C0.204,-0.541 0.252,-0.553 0.306,-0.553C0.339,-0.553 0.369,-0.549 0.396,-0.54C0.423,-0.532 0.448,-0.52 0.469,-0.504C0.49,-0.488 0.507,-0.469 0.521,-0.447C0.535,-0.424 0.544,-0.399 0.549,-0.371L0.413,-0.346C0.41,-0.36 0.405,-0.373 0.399,-0.384C0.393,-0.395 0.386,-0.405 0.377,-0.413C0.368,-0.421 0.358,-0.427 0.346,-0.431C0.335,-0.435 0.322,-0.437 0.308,-0.437C0.282,-0.437 0.26,-0.43 0.242,-0.416C0.225,-0.402 0.211,-0.383 0.202,-0.358C0.193,-0.333 0.189,-0.304 0.189,-0.271C0.189,-0.239 0.193,-0.21 0.202,-0.185C0.211,-0.16 0.225,-0.14 0.242,-0.126C0.26,-0.112 0.282,-0.105 0.308,-0.105C0.322,-0.105 0.335,-0.107 0.347,-0.111C0.359,-0.115 0.369,-0.122 0.378,-0.13C0.387,-0.138 0.395,-0.148 0.401,-0.16C0.407,-0.172 0.411,-0.185 0.414,-0.2L0.55,-0.175C0.545,-0.146 0.536,-0.12 0.522,-0.097C0.508,-0.075 0.491,-0.055 0.47,-0.039C0.449,-0.023 0.424,-0.011 0.397,-0.002C0.369,0.006 0.339,0.011 0.306,0.011Z" style="fill:rgb(86,113,127);fill-rule:nonzero;"/>
            </g>
            <g transform="matrix(300,0,0,300,2697.385487,1380.078637)">
                <path d="M0.307,0.011C0.252,0.011 0.205,-0.001 0.165,-0.025C0.125,-0.048 0.094,-0.081 0.072,-0.123C0.051,-0.165 0.04,-0.215 0.04,-0.271C0.04,-0.327 0.051,-0.376 0.072,-0.419C0.094,-0.461 0.125,-0.494 0.165,-0.517C0.205,-0.541 0.252,-0.553 0.307,-0.553C0.362,-0.553 0.409,-0.541 0.449,-0.517C0.489,-0.494 0.52,-0.461 0.541,-0.419C0.563,-0.376 0.574,-0.327 0.574,-0.271C0.574,-0.215 0.563,-0.165 0.541,-0.123C0.52,-0.081 0.489,-0.048 0.449,-0.025C0.409,-0.001 0.362,0.011 0.307,0.011ZM0.307,-0.105C0.333,-0.105 0.355,-0.112 0.372,-0.126C0.39,-0.141 0.403,-0.161 0.411,-0.186C0.42,-0.211 0.425,-0.239 0.425,-0.271C0.425,-0.303 0.42,-0.332 0.411,-0.357C0.403,-0.382 0.39,-0.402 0.372,-0.416C0.355,-0.43 0.333,-0.437 0.307,-0.437C0.281,-0.437 0.259,-0.43 0.241,-0.416C0.224,-0.402 0.211,-0.382 0.202,-0.357C0.193,-0.332 0.189,-0.303 0.189,-0.271C0.189,-0.239 0.193,-0.211 0.202,-0.186C0.211,-0.161 0.224,-0.141 0.241,-0.126C0.259,-0.112 0.281,-0.105 0.307,-0.105Z" style="fill:rgb(86,113,127);fill-rule:nonzero;"/>
            </g>
            <g transform="matrix(300,0,0,300,2881.369862,1380.078637)">
                <rect x="0.062" y="-0.728" width="0.146" height="0.728" style="fill:rgb(86,113,127);"/>
            </g>
            <g transform="matrix(300,0,0,300,2962.668691,1380.078637)">
                <path d="M0.062,-0L0.062,-0.546L0.198,-0.546L0.206,-0.41L0.195,-0.41C0.203,-0.444 0.216,-0.471 0.232,-0.492C0.249,-0.513 0.268,-0.529 0.29,-0.539C0.312,-0.549 0.336,-0.554 0.36,-0.554C0.399,-0.554 0.431,-0.542 0.455,-0.517C0.479,-0.492 0.497,-0.453 0.508,-0.401L0.491,-0.401C0.499,-0.436 0.513,-0.465 0.531,-0.488C0.55,-0.51 0.571,-0.527 0.596,-0.538C0.622,-0.549 0.648,-0.554 0.676,-0.554C0.709,-0.554 0.739,-0.547 0.765,-0.532C0.792,-0.518 0.812,-0.497 0.827,-0.469C0.842,-0.441 0.85,-0.408 0.85,-0.368L0.85,-0L0.704,-0L0.704,-0.34C0.704,-0.371 0.695,-0.394 0.679,-0.409C0.662,-0.424 0.641,-0.432 0.617,-0.432C0.598,-0.432 0.583,-0.428 0.569,-0.42C0.555,-0.412 0.545,-0.4 0.538,-0.386C0.531,-0.372 0.527,-0.355 0.527,-0.336L0.527,-0L0.385,-0L0.385,-0.344C0.385,-0.371 0.377,-0.392 0.362,-0.408C0.346,-0.424 0.325,-0.432 0.3,-0.432C0.283,-0.432 0.268,-0.428 0.254,-0.42C0.24,-0.412 0.229,-0.401 0.221,-0.386C0.213,-0.37 0.209,-0.352 0.209,-0.33L0.209,-0L0.062,-0Z" style="fill:rgb(86,113,127);fill-rule:nonzero;"/>
            </g>
            <g transform="matrix(300,0,0,300,3230.149159,1380.078637)">
                <path d="M0.114,-0.425L0.099,-0.728L0.24,-0.728L0.225,-0.425L0.114,-0.425Z" style="fill:rgb(86,113,127);fill-rule:nonzero;"/>
            </g>
            <g transform="matrix(300,0,0,300,3329.465566,1380.078637)">
                <path d="M0.279,0.011C0.235,0.011 0.196,0.004 0.163,-0.008C0.129,-0.021 0.101,-0.039 0.08,-0.063C0.058,-0.087 0.044,-0.115 0.038,-0.149L0.174,-0.173C0.182,-0.147 0.194,-0.128 0.212,-0.116C0.23,-0.103 0.254,-0.097 0.284,-0.097C0.311,-0.097 0.334,-0.102 0.35,-0.113C0.366,-0.123 0.374,-0.137 0.374,-0.153C0.374,-0.167 0.368,-0.179 0.357,-0.188C0.345,-0.197 0.328,-0.204 0.303,-0.209L0.209,-0.229C0.157,-0.239 0.118,-0.258 0.091,-0.284C0.065,-0.309 0.052,-0.343 0.052,-0.384C0.052,-0.418 0.062,-0.449 0.081,-0.474C0.1,-0.499 0.127,-0.519 0.161,-0.532C0.195,-0.546 0.236,-0.553 0.282,-0.553C0.325,-0.553 0.362,-0.547 0.394,-0.535C0.425,-0.523 0.451,-0.506 0.47,-0.484C0.49,-0.463 0.503,-0.437 0.509,-0.407L0.379,-0.384C0.374,-0.403 0.363,-0.418 0.347,-0.43C0.332,-0.442 0.31,-0.448 0.284,-0.448C0.26,-0.448 0.24,-0.443 0.223,-0.432C0.207,-0.422 0.199,-0.409 0.199,-0.392C0.199,-0.379 0.204,-0.367 0.215,-0.358C0.225,-0.348 0.243,-0.341 0.269,-0.335L0.367,-0.316C0.42,-0.305 0.459,-0.288 0.485,-0.263C0.511,-0.239 0.524,-0.207 0.524,-0.168C0.524,-0.133 0.513,-0.101 0.492,-0.074C0.471,-0.048 0.443,-0.027 0.406,-0.012C0.369,0.003 0.327,0.011 0.279,0.011Z" style="fill:rgb(86,113,127);fill-rule:nonzero;"/>
            </g>
            <g transform="matrix(300,0,0,300,1985.910878,1695.078637)">
                <path d="M0.024,-0L0.273,-0.728L0.468,-0.728L0.723,-0L0.557,-0L0.441,-0.351C0.426,-0.396 0.412,-0.446 0.398,-0.5C0.383,-0.554 0.368,-0.613 0.352,-0.676L0.385,-0.676C0.369,-0.612 0.355,-0.553 0.341,-0.499C0.328,-0.445 0.314,-0.395 0.301,-0.351L0.188,-0L0.024,-0ZM0.179,-0.169L0.179,-0.286L0.567,-0.286L0.567,-0.169L0.179,-0.169Z" style="fill:rgb(86,113,127);fill-rule:nonzero;"/>
            </g>
            <g transform="matrix(300,0,0,300,2209.885487,1695.078637)">
                <path d="M0.062,0.204L0.062,-0.546L0.206,-0.546L0.206,-0.454L0.214,-0.454C0.22,-0.469 0.23,-0.483 0.242,-0.499C0.255,-0.514 0.271,-0.527 0.292,-0.537C0.312,-0.548 0.338,-0.553 0.369,-0.553C0.41,-0.553 0.447,-0.542 0.48,-0.521C0.513,-0.501 0.54,-0.469 0.56,-0.428C0.58,-0.386 0.591,-0.334 0.591,-0.272C0.591,-0.211 0.581,-0.16 0.561,-0.118C0.542,-0.077 0.515,-0.045 0.482,-0.023C0.448,-0.002 0.41,0.009 0.368,0.009C0.339,0.009 0.314,0.004 0.293,-0.006C0.273,-0.016 0.256,-0.028 0.243,-0.043C0.23,-0.058 0.22,-0.073 0.214,-0.087L0.209,-0.087L0.209,0.204L0.062,0.204ZM0.323,-0.108C0.349,-0.108 0.37,-0.115 0.388,-0.129C0.405,-0.143 0.418,-0.163 0.427,-0.187C0.436,-0.212 0.44,-0.241 0.44,-0.272C0.44,-0.304 0.436,-0.333 0.427,-0.357C0.418,-0.382 0.405,-0.401 0.388,-0.415C0.37,-0.428 0.349,-0.435 0.323,-0.435C0.298,-0.435 0.277,-0.429 0.259,-0.415C0.242,-0.402 0.228,-0.383 0.219,-0.359C0.21,-0.334 0.206,-0.306 0.206,-0.272C0.206,-0.24 0.21,-0.211 0.219,-0.186C0.229,-0.162 0.242,-0.143 0.26,-0.129C0.277,-0.115 0.298,-0.108 0.323,-0.108Z" style="fill:rgb(86,113,127);fill-rule:nonzero;"/>
            </g>
            <g transform="matrix(300,0,0,300,2398.996816,1695.078637)">
                <path d="M0.062,0.204L0.062,-0.546L0.206,-0.546L0.206,-0.454L0.214,-0.454C0.22,-0.469 0.23,-0.483 0.242,-0.499C0.255,-0.514 0.271,-0.527 0.292,-0.537C0.312,-0.548 0.338,-0.553 0.369,-0.553C0.41,-0.553 0.447,-0.542 0.48,-0.521C0.513,-0.501 0.54,-0.469 0.56,-0.428C0.58,-0.386 0.591,-0.334 0.591,-0.272C0.591,-0.211 0.581,-0.16 0.561,-0.118C0.542,-0.077 0.515,-0.045 0.482,-0.023C0.448,-0.002 0.41,0.009 0.368,0.009C0.339,0.009 0.314,0.004 0.293,-0.006C0.273,-0.016 0.256,-0.028 0.243,-0.043C0.23,-0.058 0.22,-0.073 0.214,-0.087L0.209,-0.087L0.209,0.204L0.062,0.204ZM0.323,-0.108C0.349,-0.108 0.37,-0.115 0.388,-0.129C0.405,-0.143 0.418,-0.163 0.427,-0.187C0.436,-0.212 0.44,-0.241 0.44,-0.272C0.44,-0.304 0.436,-0.333 0.427,-0.357C0.418,-0.382 0.405,-0.401 0.388,-0.415C0.37,-0.428 0.349,-0.435 0.323,-0.435C0.298,-0.435 0.277,-0.429 0.259,-0.415C0.242,-0.402 0.228,-0.383 0.219,-0.359C0.21,-0.334 0.206,-0.306 0.206,-0.272C0.206,-0.24 0.21,-0.211 0.219,-0.186C0.229,-0.162 0.242,-0.143 0.26,-0.129C0.277,-0.115 0.298,-0.108 0.323,-0.108Z" style="fill:rgb(86,113,127);fill-rule:nonzero;"/>
            </g>
            <g transform="matrix(300,0,0,300,2588.108144,1695.078637)">
                <rect x="0.062" y="-0.728" width="0.146" height="0.728" style="fill:rgb(86,113,127);"/>
            </g>
            <g transform="matrix(300,0,0,300,2669.406972,1695.078637)">
                <path d="M0.062,-0L0.062,-0.546L0.209,-0.546L0.209,-0L0.062,-0ZM0.136,-0.617C0.114,-0.617 0.095,-0.624 0.079,-0.639C0.063,-0.654 0.055,-0.672 0.055,-0.692C0.055,-0.713 0.063,-0.731 0.079,-0.746C0.095,-0.76 0.114,-0.768 0.136,-0.768C0.158,-0.768 0.177,-0.76 0.193,-0.746C0.208,-0.731 0.216,-0.713 0.216,-0.692C0.216,-0.672 0.208,-0.654 0.193,-0.639C0.177,-0.624 0.158,-0.617 0.136,-0.617Z" style="fill:rgb(86,113,127);fill-rule:nonzero;"/>
            </g>
            <g transform="matrix(300,0,0,300,2750.7058,1695.078637)">
                <path d="M0.215,0.011C0.18,0.011 0.149,0.004 0.122,-0.008C0.094,-0.02 0.073,-0.038 0.057,-0.062C0.041,-0.087 0.033,-0.117 0.033,-0.153C0.033,-0.183 0.039,-0.209 0.05,-0.229C0.061,-0.249 0.076,-0.266 0.096,-0.278C0.115,-0.291 0.137,-0.3 0.162,-0.307C0.186,-0.313 0.212,-0.318 0.239,-0.32C0.271,-0.324 0.296,-0.327 0.315,-0.329C0.335,-0.332 0.349,-0.337 0.358,-0.343C0.367,-0.349 0.372,-0.357 0.372,-0.369L0.372,-0.372C0.372,-0.387 0.368,-0.4 0.362,-0.411C0.355,-0.422 0.345,-0.43 0.333,-0.436C0.32,-0.442 0.304,-0.444 0.286,-0.444C0.267,-0.444 0.251,-0.442 0.237,-0.436C0.223,-0.43 0.212,-0.423 0.203,-0.413C0.194,-0.404 0.187,-0.393 0.183,-0.381L0.049,-0.404C0.058,-0.435 0.074,-0.462 0.096,-0.484C0.117,-0.507 0.145,-0.524 0.177,-0.535C0.209,-0.547 0.246,-0.553 0.286,-0.553C0.316,-0.553 0.344,-0.549 0.372,-0.542C0.4,-0.535 0.424,-0.525 0.446,-0.51C0.468,-0.495 0.486,-0.476 0.499,-0.452C0.512,-0.429 0.518,-0.401 0.518,-0.368L0.518,-0L0.379,-0L0.379,-0.076L0.374,-0.076C0.366,-0.059 0.354,-0.044 0.339,-0.031C0.325,-0.018 0.307,-0.008 0.286,-0C0.266,0.007 0.242,0.011 0.215,0.011ZM0.256,-0.092C0.279,-0.092 0.3,-0.097 0.317,-0.106C0.334,-0.115 0.348,-0.127 0.358,-0.143C0.368,-0.159 0.373,-0.176 0.373,-0.195L0.373,-0.254C0.368,-0.251 0.362,-0.248 0.353,-0.246C0.344,-0.243 0.335,-0.241 0.324,-0.239C0.313,-0.237 0.303,-0.235 0.292,-0.233C0.282,-0.232 0.272,-0.23 0.264,-0.229C0.246,-0.227 0.23,-0.223 0.217,-0.217C0.203,-0.211 0.193,-0.203 0.185,-0.194C0.177,-0.184 0.174,-0.172 0.174,-0.157C0.174,-0.143 0.177,-0.131 0.184,-0.121C0.192,-0.112 0.201,-0.104 0.214,-0.099C0.226,-0.095 0.24,-0.092 0.256,-0.092Z" style="fill:rgb(86,113,127);fill-rule:nonzero;"/>
            </g>
            <g transform="matrix(300,0,0,300,2924.875722,1695.078637)">
                <path d="M0.209,-0.316L0.209,-0L0.062,-0L0.062,-0.546L0.201,-0.546L0.203,-0.41L0.194,-0.41C0.209,-0.455 0.23,-0.49 0.259,-0.515C0.289,-0.54 0.326,-0.553 0.372,-0.553C0.41,-0.553 0.443,-0.545 0.471,-0.528C0.499,-0.512 0.521,-0.488 0.537,-0.457C0.552,-0.427 0.56,-0.39 0.56,-0.347L0.56,-0L0.414,-0L0.414,-0.322C0.414,-0.356 0.405,-0.382 0.387,-0.401C0.37,-0.421 0.346,-0.43 0.315,-0.43C0.294,-0.43 0.276,-0.426 0.26,-0.417C0.244,-0.408 0.231,-0.395 0.222,-0.378C0.213,-0.361 0.209,-0.34 0.209,-0.316Z" style="fill:rgb(86,113,127);fill-rule:nonzero;"/>
            </g>
            <g transform="matrix(300,0,0,300,3111.6433,1695.078637)">
                <path d="M0.306,0.011C0.252,0.011 0.204,-0.001 0.164,-0.025C0.125,-0.048 0.094,-0.081 0.072,-0.123C0.051,-0.165 0.04,-0.215 0.04,-0.271C0.04,-0.327 0.051,-0.376 0.072,-0.419C0.094,-0.461 0.125,-0.494 0.164,-0.517C0.204,-0.541 0.252,-0.553 0.306,-0.553C0.339,-0.553 0.369,-0.549 0.396,-0.54C0.423,-0.532 0.448,-0.52 0.469,-0.504C0.49,-0.488 0.507,-0.469 0.521,-0.447C0.535,-0.424 0.544,-0.399 0.549,-0.371L0.413,-0.346C0.41,-0.36 0.405,-0.373 0.399,-0.384C0.393,-0.395 0.386,-0.405 0.377,-0.413C0.368,-0.421 0.358,-0.427 0.346,-0.431C0.335,-0.435 0.322,-0.437 0.308,-0.437C0.282,-0.437 0.26,-0.43 0.242,-0.416C0.225,-0.402 0.211,-0.383 0.202,-0.358C0.193,-0.333 0.189,-0.304 0.189,-0.271C0.189,-0.239 0.193,-0.21 0.202,-0.185C0.211,-0.16 0.225,-0.14 0.242,-0.126C0.26,-0.112 0.282,-0.105 0.308,-0.105C0.322,-0.105 0.335,-0.107 0.347,-0.111C0.359,-0.115 0.369,-0.122 0.378,-0.13C0.387,-0.138 0.395,-0.148 0.401,-0.16C0.407,-0.172 0.411,-0.185 0.414,-0.2L0.55,-0.175C0.545,-0.146 0.536,-0.12 0.522,-0.097C0.508,-0.075 0.491,-0.055 0.47,-0.039C0.449,-0.023 0.424,-0.011 0.397,-0.002C0.369,0.006 0.339,0.011 0.306,0.011Z" style="fill:rgb(86,113,127);fill-rule:nonzero;"/>
            </g>
            <g transform="matrix(300,0,0,300,3288.156972,1695.078637)">
                <path d="M0.309,0.011C0.254,0.011 0.206,-0.001 0.165,-0.024C0.125,-0.046 0.094,-0.079 0.072,-0.121C0.051,-0.163 0.04,-0.213 0.04,-0.27C0.04,-0.326 0.05,-0.376 0.072,-0.418C0.093,-0.46 0.124,-0.493 0.163,-0.517C0.203,-0.541 0.249,-0.553 0.302,-0.553C0.338,-0.553 0.371,-0.547 0.402,-0.536C0.433,-0.524 0.46,-0.507 0.483,-0.484C0.507,-0.461 0.525,-0.433 0.538,-0.398C0.551,-0.363 0.558,-0.323 0.558,-0.276L0.558,-0.235L0.1,-0.235L0.1,-0.327L0.487,-0.327L0.418,-0.302C0.418,-0.331 0.414,-0.355 0.405,-0.376C0.396,-0.397 0.384,-0.414 0.367,-0.425C0.349,-0.437 0.328,-0.442 0.303,-0.442C0.278,-0.442 0.256,-0.437 0.239,-0.425C0.221,-0.413 0.207,-0.397 0.198,-0.377C0.189,-0.357 0.184,-0.334 0.184,-0.309L0.184,-0.244C0.184,-0.212 0.19,-0.186 0.2,-0.164C0.211,-0.143 0.226,-0.127 0.245,-0.116C0.264,-0.105 0.286,-0.1 0.312,-0.1C0.329,-0.1 0.344,-0.102 0.358,-0.107C0.372,-0.112 0.384,-0.119 0.394,-0.129C0.404,-0.138 0.412,-0.15 0.417,-0.164L0.55,-0.139C0.541,-0.109 0.526,-0.083 0.504,-0.06C0.482,-0.038 0.455,-0.02 0.422,-0.008C0.389,0.004 0.352,0.011 0.309,0.011Z" style="fill:rgb(86,113,127);fill-rule:nonzero;"/>
            </g>
            <g transform="matrix(300,0,0,300,3537.912831,1695.078637)">
                <path d="M0.333,0.011C0.274,0.011 0.224,0.002 0.181,-0.016C0.137,-0.034 0.104,-0.061 0.08,-0.096C0.056,-0.131 0.043,-0.174 0.041,-0.226L0.186,-0.226C0.188,-0.201 0.196,-0.181 0.208,-0.164C0.221,-0.148 0.238,-0.136 0.259,-0.127C0.28,-0.119 0.304,-0.115 0.331,-0.115C0.358,-0.115 0.381,-0.119 0.401,-0.127C0.42,-0.135 0.436,-0.145 0.447,-0.159C0.458,-0.173 0.463,-0.19 0.463,-0.208C0.463,-0.225 0.458,-0.239 0.448,-0.25C0.439,-0.261 0.424,-0.271 0.406,-0.279C0.387,-0.287 0.364,-0.294 0.338,-0.3L0.258,-0.32C0.196,-0.335 0.148,-0.359 0.113,-0.391C0.078,-0.423 0.061,-0.465 0.061,-0.518C0.061,-0.562 0.073,-0.6 0.096,-0.633C0.12,-0.666 0.153,-0.692 0.194,-0.71C0.235,-0.728 0.282,-0.737 0.335,-0.737C0.388,-0.737 0.435,-0.728 0.475,-0.71C0.515,-0.691 0.547,-0.666 0.569,-0.633C0.591,-0.6 0.603,-0.563 0.604,-0.52L0.46,-0.52C0.457,-0.549 0.444,-0.572 0.422,-0.588C0.4,-0.604 0.37,-0.612 0.333,-0.612C0.308,-0.612 0.286,-0.608 0.268,-0.601C0.251,-0.594 0.237,-0.584 0.228,-0.571C0.218,-0.558 0.214,-0.544 0.214,-0.528C0.214,-0.51 0.219,-0.495 0.23,-0.483C0.241,-0.471 0.255,-0.462 0.273,-0.454C0.291,-0.447 0.31,-0.441 0.33,-0.436L0.396,-0.42C0.426,-0.413 0.455,-0.404 0.481,-0.392C0.508,-0.38 0.531,-0.366 0.551,-0.349C0.57,-0.332 0.586,-0.311 0.597,-0.288C0.608,-0.265 0.613,-0.238 0.613,-0.207C0.613,-0.163 0.602,-0.125 0.58,-0.092C0.558,-0.059 0.526,-0.034 0.484,-0.016C0.442,0.002 0.392,0.011 0.333,0.011Z" style="fill:rgb(86,113,127);fill-rule:nonzero;"/>
            </g>
            <g transform="matrix(300,0,0,300,3734.348378,1695.078637)">
                <path d="M0.309,0.011C0.254,0.011 0.206,-0.001 0.165,-0.024C0.125,-0.046 0.094,-0.079 0.072,-0.121C0.051,-0.163 0.04,-0.213 0.04,-0.27C0.04,-0.326 0.05,-0.376 0.072,-0.418C0.093,-0.46 0.124,-0.493 0.163,-0.517C0.203,-0.541 0.249,-0.553 0.302,-0.553C0.338,-0.553 0.371,-0.547 0.402,-0.536C0.433,-0.524 0.46,-0.507 0.483,-0.484C0.507,-0.461 0.525,-0.433 0.538,-0.398C0.551,-0.363 0.558,-0.323 0.558,-0.276L0.558,-0.235L0.1,-0.235L0.1,-0.327L0.487,-0.327L0.418,-0.302C0.418,-0.331 0.414,-0.355 0.405,-0.376C0.396,-0.397 0.384,-0.414 0.367,-0.425C0.349,-0.437 0.328,-0.442 0.303,-0.442C0.278,-0.442 0.256,-0.437 0.239,-0.425C0.221,-0.413 0.207,-0.397 0.198,-0.377C0.189,-0.357 0.184,-0.334 0.184,-0.309L0.184,-0.244C0.184,-0.212 0.19,-0.186 0.2,-0.164C0.211,-0.143 0.226,-0.127 0.245,-0.116C0.264,-0.105 0.286,-0.1 0.312,-0.1C0.329,-0.1 0.344,-0.102 0.358,-0.107C0.372,-0.112 0.384,-0.119 0.394,-0.129C0.404,-0.138 0.412,-0.15 0.417,-0.164L0.55,-0.139C0.541,-0.109 0.526,-0.083 0.504,-0.06C0.482,-0.038 0.455,-0.02 0.422,-0.008C0.389,0.004 0.352,0.011 0.309,0.011Z" style="fill:rgb(86,113,127);fill-rule:nonzero;"/>
            </g>
            <g transform="matrix(300,0,0,300,3913.059316,1695.078637)">
                <path d="M0.062,-0L0.062,-0.546L0.204,-0.546L0.204,-0.451L0.21,-0.451C0.22,-0.484 0.237,-0.51 0.26,-0.527C0.284,-0.545 0.311,-0.553 0.342,-0.553C0.349,-0.553 0.357,-0.553 0.366,-0.552C0.375,-0.551 0.382,-0.55 0.389,-0.548L0.389,-0.417C0.383,-0.42 0.373,-0.422 0.361,-0.423C0.348,-0.424 0.337,-0.425 0.326,-0.425C0.303,-0.425 0.283,-0.42 0.266,-0.41C0.248,-0.401 0.234,-0.387 0.224,-0.37C0.214,-0.353 0.209,-0.333 0.209,-0.311L0.209,-0L0.062,-0Z" style="fill:rgb(86,113,127);fill-rule:nonzero;"/>
            </g>
            <g transform="matrix(300,0,0,300,4039.914784,1695.078637)">
                <path d="M0.216,-0L0.015,-0.546L0.171,-0.546L0.262,-0.263C0.274,-0.227 0.284,-0.191 0.292,-0.155C0.3,-0.119 0.309,-0.082 0.317,-0.043L0.286,-0.043C0.295,-0.082 0.303,-0.119 0.311,-0.155C0.319,-0.191 0.329,-0.227 0.34,-0.263L0.43,-0.546L0.584,-0.546L0.383,-0L0.216,-0Z" style="fill:rgb(86,113,127);fill-rule:nonzero;"/>
            </g>
            <g transform="matrix(300,0,0,300,4219.797597,1695.078637)">
                <path d="M0.062,-0L0.062,-0.546L0.209,-0.546L0.209,-0L0.062,-0ZM0.136,-0.617C0.114,-0.617 0.095,-0.624 0.079,-0.639C0.063,-0.654 0.055,-0.672 0.055,-0.692C0.055,-0.713 0.063,-0.731 0.079,-0.746C0.095,-0.76 0.114,-0.768 0.136,-0.768C0.158,-0.768 0.177,-0.76 0.193,-0.746C0.208,-0.731 0.216,-0.713 0.216,-0.692C0.216,-0.672 0.208,-0.654 0.193,-0.639C0.177,-0.624 0.158,-0.617 0.136,-0.617Z" style="fill:rgb(86,113,127);fill-rule:nonzero;"/>
            </g>
            <g transform="matrix(300,0,0,300,4301.096425,1695.078637)">
                <path d="M0.306,0.011C0.252,0.011 0.204,-0.001 0.164,-0.025C0.125,-0.048 0.094,-0.081 0.072,-0.123C0.051,-0.165 0.04,-0.215 0.04,-0.271C0.04,-0.327 0.051,-0.376 0.072,-0.419C0.094,-0.461 0.125,-0.494 0.164,-0.517C0.204,-0.541 0.252,-0.553 0.306,-0.553C0.339,-0.553 0.369,-0.549 0.396,-0.54C0.423,-0.532 0.448,-0.52 0.469,-0.504C0.49,-0.488 0.507,-0.469 0.521,-0.447C0.535,-0.424 0.544,-0.399 0.549,-0.371L0.413,-0.346C0.41,-0.36 0.405,-0.373 0.399,-0.384C0.393,-0.395 0.386,-0.405 0.377,-0.413C0.368,-0.421 0.358,-0.427 0.346,-0.431C0.335,-0.435 0.322,-0.437 0.308,-0.437C0.282,-0.437 0.26,-0.43 0.242,-0.416C0.225,-0.402 0.211,-0.383 0.202,-0.358C0.193,-0.333 0.189,-0.304 0.189,-0.271C0.189,-0.239 0.193,-0.21 0.202,-0.185C0.211,-0.16 0.225,-0.14 0.242,-0.126C0.26,-0.112 0.282,-0.105 0.308,-0.105C0.322,-0.105 0.335,-0.107 0.347,-0.111C0.359,-0.115 0.369,-0.122 0.378,-0.13C0.387,-0.138 0.395,-0.148 0.401,-0.16C0.407,-0.172 0.411,-0.185 0.414,-0.2L0.55,-0.175C0.545,-0.146 0.536,-0.12 0.522,-0.097C0.508,-0.075 0.491,-0.055 0.47,-0.039C0.449,-0.023 0.424,-0.011 0.397,-0.002C0.369,0.006 0.339,0.011 0.306,0.011Z" style="fill:rgb(86,113,127);fill-rule:nonzero;"/>
            </g>
            <g transform="matrix(300,0,0,300,4477.610097,1695.078637)">
                <path d="M0.309,0.011C0.254,0.011 0.206,-0.001 0.165,-0.024C0.125,-0.046 0.094,-0.079 0.072,-0.121C0.051,-0.163 0.04,-0.213 0.04,-0.27C0.04,-0.326 0.05,-0.376 0.072,-0.418C0.093,-0.46 0.124,-0.493 0.163,-0.517C0.203,-0.541 0.249,-0.553 0.302,-0.553C0.338,-0.553 0.371,-0.547 0.402,-0.536C0.433,-0.524 0.46,-0.507 0.483,-0.484C0.507,-0.461 0.525,-0.433 0.538,-0.398C0.551,-0.363 0.558,-0.323 0.558,-0.276L0.558,-0.235L0.1,-0.235L0.1,-0.327L0.487,-0.327L0.418,-0.302C0.418,-0.331 0.414,-0.355 0.405,-0.376C0.396,-0.397 0.384,-0.414 0.367,-0.425C0.349,-0.437 0.328,-0.442 0.303,-0.442C0.278,-0.442 0.256,-0.437 0.239,-0.425C0.221,-0.413 0.207,-0.397 0.198,-0.377C0.189,-0.357 0.184,-0.334 0.184,-0.309L0.184,-0.244C0.184,-0.212 0.19,-0.186 0.2,-0.164C0.211,-0.143 0.226,-0.127 0.245,-0.116C0.264,-0.105 0.286,-0.1 0.312,-0.1C0.329,-0.1 0.344,-0.102 0.358,-0.107C0.372,-0.112 0.384,-0.119 0.394,-0.129C0.404,-0.138 0.412,-0.15 0.417,-0.164L0.55,-0.139C0.541,-0.109 0.526,-0.083 0.504,-0.06C0.482,-0.038 0.455,-0.02 0.422,-0.008C0.389,0.004 0.352,0.011 0.309,0.011Z" style="fill:rgb(86,113,127);fill-rule:nonzero;"/>
            </g>
        </g>
        <g transform="matrix(0.514796,0,0,0.514796,2546.327776,2250)">
            <g transform="matrix(1,0,0,1,-689.583333,-947.916667)">
                <g>
                    <clipPath id="_clip1">
                        <rect x="0" y="0" width="1379.167" height="1895.833"/>
                    </clipPath>
                    <g clip-path="url(#_clip1)">
                        <g transform="matrix(4.166667,0,0,4.166667,-811.743825,-2543.948717)">
                            <path d="M290.71,1028.978L209.195,980.229C209.195,980.229 194.825,972.01 194.825,960.477L194.825,940.752C194.825,940.752 194.405,934.562 200.289,926.538L222.35,886.072C222.35,886.072 224.79,879.338 237.118,873.241L290.71,851.557C290.71,851.557 319.386,846.217 325.905,800.326C325.905,800.326 327.832,787.995 339.334,798.197C339.334,798.197 352.625,811.614 375.759,816.294C375.759,816.294 323.473,782.06 323.473,762.938L323.473,741.809C323.473,741.809 299.67,729.641 299.67,708.111C299.67,686.581 317.054,686.982 317.054,686.982L317.054,659.037C317.054,659.037 313.887,610.6 401.904,610.6C401.904,610.6 450.745,607.398 458.842,651.276L465.11,686.013C465.11,686.013 419.553,674.965 390.347,685.77C390.347,685.77 453.366,682.479 494.111,704.627C494.111,704.627 509.949,713.537 491.12,714.136L466.347,714.136C466.347,714.136 459.075,712.889 459.075,728.668C459.075,728.668 461.777,794.019 416.227,819.092C416.227,819.092 398.997,824.138 404.988,833.018C404.988,833.018 408.481,844.026 446.509,856.772C446.509,856.772 490.44,869.439 501.213,891.313L525.199,936.444L525.199,959.621C525.199,959.621 527.09,969.546 511.158,979.209L439.333,1021.52L439.333,956.225C439.333,956.225 438.496,948.579 453.473,938.63C453.473,938.63 471.088,927.85 465.238,899.434C465.238,899.434 460.641,878.331 442.881,875.405L442.881,918.239L426.374,927.433L406.733,917.403L406.733,876.45C406.733,876.45 384.794,882.092 384.794,908.001C384.794,933.91 398.584,939.76 398.584,939.76C398.584,939.76 412.91,943.691 412.91,961.451L412.91,1035.627L360,1065.044L325.78,1046.701L325.78,965.608L320.912,960.593L320.912,927.329C320.912,927.329 323.085,917.968 339.299,917.968L339.299,922.816C339.299,922.816 338.798,929.669 352.839,929.669C366.88,929.669 367.381,921.311 367.381,921.311L367.381,886.042C367.381,886.042 367.883,878.185 354.009,878.185C340.135,878.185 338.97,885.325 338.97,885.325C338.97,885.325 334.006,897.649 323.908,885.325C323.908,885.325 320.792,875.83 295.307,875.83C269.821,875.83 257.953,883.185 257.953,883.185C257.953,883.185 233.458,891.209 232.417,918.789L237.118,918.789C237.118,918.789 245.576,901.719 269.814,901.719C294.051,901.719 295.307,923.658 295.307,923.658L295.307,960.85L290.71,966.25L290.71,1028.978Z" style="fill:rgb(86,113,127);"/>
                            <path d="M194.825,918.196L194.825,803.658C194.825,779.838 214.455,770.018 214.455,770.018L295.307,723.841C302.819,740.139 314.501,745.324 314.501,745.324C314.501,745.324 321.81,765.923 316.378,801.897C310.945,837.872 290.71,842.558 290.71,842.558C290.71,842.558 254.781,856.139 237.118,863.661C219.455,871.183 217.171,876.616 217.171,876.616L194.825,918.196ZM466.52,747.064L517.294,776.734C517.294,776.734 525.269,782.167 525.269,807.24L525.269,919.652L507.891,884.967C507.891,884.967 500.996,869.923 476.55,860.521C452.103,851.118 422.851,839.626 422.851,839.626C422.851,839.626 402.583,828.761 419.508,827.299C436.432,825.836 458.58,779.5 458.58,779.5C458.58,779.5 464.64,767.242 466.52,747.064Z" style="fill:rgb(165,186,198);"/>
                        </g>
                    </g>
                </g>
            </g>
        </g>
    </g>
</svg>
